STARTFONT 2.1
COMMENT
COMMENT Converted from OpenType font "nba-knicks.ttf" by "otf2bdf 3.0".
COMMENT
FONT -FreeType-NBA Knicks-Medium-R-Normal--16-160-72-72-P-74-ISO10646-1
SIZE 16 72 72
FONTBOUNDINGBOX 9 14 0 -1
STARTPROPERTIES 19
FOUNDRY "FreeType"
FAMILY_NAME "NBA Knicks"
WEIGHT_NAME "Medium"
SLANT "R"
SETWIDTH_NAME "Normal"
ADD_STYLE_NAME ""
PIXEL_SIZE 16
POINT_SIZE 160
RESOLUTION_X 72
RESOLUTION_Y 72
SPACING "P"
AVERAGE_WIDTH 74
CHARSET_REGISTRY "ISO10646"
CHARSET_ENCODING "1"
FONT_ASCENT 12
FONT_DESCENT 3
COPYRIGHT "Generated by Fontographer 4.1"
_OTF_FONTFILE "nba-knicks.ttf"
_OTF_PSNAME "NBAKnicks"
ENDPROPERTIES
CHARS 63
STARTCHAR 0020
ENCODING 32
SWIDTH 500 0
DWIDTH 8 0
BBX 0 0 0 0
BITMAP
ENDCHAR
STARTCHAR 0030
ENCODING 48
SWIDTH 625 0
DWIDTH 10 0
BBX 9 13 0 0
BITMAP
3E00
7F00
FF80
E380
E380
E380
E380
E380
E380
E380
FF80
7F00
3E00
ENDCHAR
STARTCHAR 0031
ENCODING 49
SWIDTH 312 0
DWIDTH 5 0
BBX 4 13 0 0
BITMAP
20
60
E0
E0
60
60
60
60
60
60
F0
F0
F0
ENDCHAR
STARTCHAR 0032
ENCODING 50
SWIDTH 562 0
DWIDTH 9 0
BBX 8 13 0 0
BITMAP
7C
FE
FF
03
03
07
1E
3C
70
E0
FF
FF
FF
ENDCHAR
STARTCHAR 0033
ENCODING 51
SWIDTH 625 0
DWIDTH 10 0
BBX 9 13 0 0
BITMAP
3E00
7F00
FF80
E380
0380
0380
0F00
0F80
0380
E380
E380
7F00
3E00
ENDCHAR
STARTCHAR 0034
ENCODING 52
SWIDTH 625 0
DWIDTH 10 0
BBX 8 13 0 0
BITMAP
06
0E
1E
3E
3E
76
E6
FF
FF
FF
0F
0F
0F
ENDCHAR
STARTCHAR 0035
ENCODING 53
SWIDTH 625 0
DWIDTH 10 0
BBX 9 13 0 0
BITMAP
FF80
FF80
FF80
E000
E000
FE00
FF00
FF80
0380
0380
E380
FF00
3E00
ENDCHAR
STARTCHAR 0036
ENCODING 54
SWIDTH 625 0
DWIDTH 10 0
BBX 9 13 0 0
BITMAP
3E00
7F00
FF80
E000
E000
FE00
FF00
FF80
C380
E380
FF80
7F00
3E00
ENDCHAR
STARTCHAR 0037
ENCODING 55
SWIDTH 625 0
DWIDTH 10 0
BBX 9 13 0 0
BITMAP
FF80
FF80
FF80
0380
0700
0700
0E00
0E00
1C00
1800
3800
7000
7000
ENDCHAR
STARTCHAR 0038
ENCODING 56
SWIDTH 625 0
DWIDTH 10 0
BBX 9 13 0 0
BITMAP
3E00
7F00
FF80
E380
E380
FF80
7F00
FF80
E380
E380
FF80
7F00
3E00
ENDCHAR
STARTCHAR 0039
ENCODING 57
SWIDTH 625 0
DWIDTH 10 0
BBX 9 13 0 0
BITMAP
3E00
7F00
FF80
E380
E380
FF80
7F80
3F80
0380
0380
FF80
7F00
3E00
ENDCHAR
STARTCHAR 0041
ENCODING 65
SWIDTH 500 0
DWIDTH 8 0
BBX 7 13 0 0
BITMAP
38
38
38
38
28
2C
2C
6C
7C
7C
64
EE
EE
ENDCHAR
STARTCHAR 0042
ENCODING 66
SWIDTH 500 0
DWIDTH 8 0
BBX 7 13 0 0
BITMAP
FC
FE
46
46
46
46
7C
7E
46
46
46
FE
FC
ENDCHAR
STARTCHAR 0043
ENCODING 67
SWIDTH 437 0
DWIDTH 7 0
BBX 6 13 0 0
BITMAP
7C
FC
CC
C0
C0
C0
C0
C0
C0
C0
CC
FC
78
ENDCHAR
STARTCHAR 0044
ENCODING 68
SWIDTH 500 0
DWIDTH 8 0
BBX 7 13 0 0
BITMAP
FC
FE
46
46
46
46
46
46
46
46
46
FE
FC
ENDCHAR
STARTCHAR 0045
ENCODING 69
SWIDTH 500 0
DWIDTH 8 0
BBX 7 13 0 0
BITMAP
FE
FE
46
40
40
40
70
70
40
40
46
FE
FE
ENDCHAR
STARTCHAR 0046
ENCODING 70
SWIDTH 500 0
DWIDTH 8 0
BBX 7 13 0 0
BITMAP
FE
FE
46
40
40
40
70
70
40
40
40
E0
E0
ENDCHAR
STARTCHAR 0047
ENCODING 71
SWIDTH 437 0
DWIDTH 7 0
BBX 6 13 0 0
BITMAP
7C
FC
CC
C0
C0
C0
DC
DC
CC
CC
CC
FC
78
ENDCHAR
STARTCHAR 0048
ENCODING 72
SWIDTH 500 0
DWIDTH 8 0
BBX 7 13 0 0
BITMAP
EE
EE
44
44
44
44
7C
7C
44
44
44
EE
EE
ENDCHAR
STARTCHAR 0049
ENCODING 73
SWIDTH 250 0
DWIDTH 4 0
BBX 3 13 0 0
BITMAP
E0
E0
40
40
40
40
40
40
40
40
40
E0
E0
ENDCHAR
STARTCHAR 004A
ENCODING 74
SWIDTH 500 0
DWIDTH 8 0
BBX 7 13 0 0
BITMAP
0E
0E
0C
0C
0C
0C
0C
0C
0C
0C
CC
FC
78
ENDCHAR
STARTCHAR 004B
ENCODING 75
SWIDTH 500 0
DWIDTH 8 0
BBX 7 13 0 0
BITMAP
EE
EE
4C
4C
58
58
70
78
78
4C
44
EE
EE
ENDCHAR
STARTCHAR 004C
ENCODING 76
SWIDTH 437 0
DWIDTH 7 0
BBX 7 13 0 0
BITMAP
E0
E0
40
40
40
40
40
40
40
40
46
FE
FE
ENDCHAR
STARTCHAR 004D
ENCODING 77
SWIDTH 625 0
DWIDTH 10 0
BBX 9 13 0 0
BITMAP
C380
E380
6300
6300
7700
7700
7700
5500
5D00
5D00
5D00
EB80
EB80
ENDCHAR
STARTCHAR 004E
ENCODING 78
SWIDTH 562 0
DWIDTH 9 0
BBX 8 13 0 0
BITMAP
E7
E7
62
72
72
7A
5A
5A
4E
4E
46
E6
E6
ENDCHAR
STARTCHAR 004F
ENCODING 79
SWIDTH 500 0
DWIDTH 8 0
BBX 6 13 0 0
BITMAP
7C
FC
C4
C4
C4
C4
C4
C4
C4
C4
C4
FC
7C
ENDCHAR
STARTCHAR 0050
ENCODING 80
SWIDTH 500 0
DWIDTH 8 0
BBX 7 13 0 0
BITMAP
FC
FE
46
46
46
46
7E
7C
40
40
40
E0
E0
ENDCHAR
STARTCHAR 0051
ENCODING 81
SWIDTH 500 0
DWIDTH 8 0
BBX 6 14 0 -1
BITMAP
7C
FC
C4
C4
C4
C4
C4
C4
C4
C4
DC
FC
7C
04
ENDCHAR
STARTCHAR 0052
ENCODING 82
SWIDTH 500 0
DWIDTH 8 0
BBX 7 13 0 0
BITMAP
FC
FE
46
46
46
46
7E
7C
58
48
4C
EE
E6
ENDCHAR
STARTCHAR 0053
ENCODING 83
SWIDTH 437 0
DWIDTH 7 0
BBX 6 13 0 0
BITMAP
7C
FC
CC
C0
C0
C0
F8
7C
0C
0C
CC
FC
F8
ENDCHAR
STARTCHAR 0054
ENCODING 84
SWIDTH 437 0
DWIDTH 7 0
BBX 6 13 0 0
BITMAP
FC
FC
F4
30
30
30
30
30
30
30
30
38
38
ENDCHAR
STARTCHAR 0055
ENCODING 85
SWIDTH 562 0
DWIDTH 9 0
BBX 8 13 0 0
BITMAP
EF
EF
46
46
46
46
46
46
46
46
46
7E
7C
ENDCHAR
STARTCHAR 0056
ENCODING 86
SWIDTH 500 0
DWIDTH 8 0
BBX 7 13 0 0
BITMAP
EE
EE
64
6C
6C
6C
2C
2C
28
38
38
38
38
ENDCHAR
STARTCHAR 0057
ENCODING 87
SWIDTH 562 0
DWIDTH 9 0
BBX 8 13 0 0
BITMAP
E7
EF
4A
7A
7A
7A
7E
7E
7E
3E
3E
36
24
ENDCHAR
STARTCHAR 0058
ENCODING 88
SWIDTH 500 0
DWIDTH 8 0
BBX 7 13 0 0
BITMAP
EE
EE
6C
6C
38
38
10
38
28
6C
64
EE
EE
ENDCHAR
STARTCHAR 0059
ENCODING 89
SWIDTH 500 0
DWIDTH 8 0
BBX 7 13 0 0
BITMAP
EE
EE
6C
6C
38
38
18
10
10
10
10
38
38
ENDCHAR
STARTCHAR 005A
ENCODING 90
SWIDTH 437 0
DWIDTH 7 0
BBX 6 13 0 0
BITMAP
FC
FC
CC
08
18
10
30
20
60
60
CC
FC
FC
ENDCHAR
STARTCHAR 0061
ENCODING 97
SWIDTH 500 0
DWIDTH 8 0
BBX 7 13 0 0
BITMAP
38
38
38
38
28
2C
2C
6C
7C
7C
64
EE
EE
ENDCHAR
STARTCHAR 0062
ENCODING 98
SWIDTH 500 0
DWIDTH 8 0
BBX 7 13 0 0
BITMAP
FC
FE
46
46
46
46
7C
7E
46
46
46
FE
FC
ENDCHAR
STARTCHAR 0063
ENCODING 99
SWIDTH 437 0
DWIDTH 7 0
BBX 6 13 0 0
BITMAP
7C
FC
CC
C0
C0
C0
C0
C0
C0
C0
CC
FC
78
ENDCHAR
STARTCHAR 0064
ENCODING 100
SWIDTH 500 0
DWIDTH 8 0
BBX 7 13 0 0
BITMAP
FC
FE
46
46
46
46
46
46
46
46
46
FE
FC
ENDCHAR
STARTCHAR 0065
ENCODING 101
SWIDTH 500 0
DWIDTH 8 0
BBX 7 13 0 0
BITMAP
FE
FE
46
40
40
40
70
70
40
40
46
FE
FE
ENDCHAR
STARTCHAR 0066
ENCODING 102
SWIDTH 500 0
DWIDTH 8 0
BBX 7 13 0 0
BITMAP
FE
FE
46
40
40
40
70
70
40
40
40
E0
E0
ENDCHAR
STARTCHAR 0067
ENCODING 103
SWIDTH 437 0
DWIDTH 7 0
BBX 6 13 0 0
BITMAP
7C
FC
CC
C0
C0
C0
DC
DC
CC
CC
CC
FC
78
ENDCHAR
STARTCHAR 0068
ENCODING 104
SWIDTH 500 0
DWIDTH 8 0
BBX 7 13 0 0
BITMAP
EE
EE
44
44
44
44
7C
7C
44
44
44
EE
EE
ENDCHAR
STARTCHAR 0069
ENCODING 105
SWIDTH 250 0
DWIDTH 4 0
BBX 3 13 0 0
BITMAP
E0
E0
40
40
40
40
40
40
40
40
40
E0
E0
ENDCHAR
STARTCHAR 006A
ENCODING 106
SWIDTH 500 0
DWIDTH 8 0
BBX 7 13 0 0
BITMAP
0E
0E
0C
0C
0C
0C
0C
0C
0C
0C
CC
FC
78
ENDCHAR
STARTCHAR 006B
ENCODING 107
SWIDTH 500 0
DWIDTH 8 0
BBX 7 13 0 0
BITMAP
EE
EE
4C
4C
58
58
70
78
78
4C
44
EE
EE
ENDCHAR
STARTCHAR 006C
ENCODING 108
SWIDTH 437 0
DWIDTH 7 0
BBX 7 13 0 0
BITMAP
E0
E0
40
40
40
40
40
40
40
40
46
FE
FE
ENDCHAR
STARTCHAR 006D
ENCODING 109
SWIDTH 625 0
DWIDTH 10 0
BBX 9 13 0 0
BITMAP
C380
E380
6300
6300
7700
7700
7700
5500
5D00
5D00
5D00
EB80
EB80
ENDCHAR
STARTCHAR 006E
ENCODING 110
SWIDTH 562 0
DWIDTH 9 0
BBX 8 13 0 0
BITMAP
E7
E7
62
72
72
7A
5A
5A
4E
4E
46
E6
E6
ENDCHAR
STARTCHAR 006F
ENCODING 111
SWIDTH 500 0
DWIDTH 8 0
BBX 6 13 0 0
BITMAP
7C
FC
C4
C4
C4
C4
C4
C4
C4
C4
C4
FC
7C
ENDCHAR
STARTCHAR 0070
ENCODING 112
SWIDTH 500 0
DWIDTH 8 0
BBX 7 13 0 0
BITMAP
FC
FE
46
46
46
46
7E
7C
40
40
40
E0
E0
ENDCHAR
STARTCHAR 0071
ENCODING 113
SWIDTH 500 0
DWIDTH 8 0
BBX 6 14 0 -1
BITMAP
7C
FC
C4
C4
C4
C4
C4
C4
C4
C4
DC
FC
7C
04
ENDCHAR
STARTCHAR 0072
ENCODING 114
SWIDTH 500 0
DWIDTH 8 0
BBX 7 13 0 0
BITMAP
FC
FE
46
46
46
46
7E
7C
58
48
4C
EE
E6
ENDCHAR
STARTCHAR 0073
ENCODING 115
SWIDTH 437 0
DWIDTH 7 0
BBX 6 13 0 0
BITMAP
7C
FC
CC
C0
C0
C0
F8
7C
0C
0C
CC
FC
F8
ENDCHAR
STARTCHAR 0074
ENCODING 116
SWIDTH 437 0
DWIDTH 7 0
BBX 6 13 0 0
BITMAP
FC
FC
F4
30
30
30
30
30
30
30
30
38
38
ENDCHAR
STARTCHAR 0075
ENCODING 117
SWIDTH 562 0
DWIDTH 9 0
BBX 8 13 0 0
BITMAP
EF
EF
46
46
46
46
46
46
46
46
46
7E
7C
ENDCHAR
STARTCHAR 0076
ENCODING 118
SWIDTH 500 0
DWIDTH 8 0
BBX 7 13 0 0
BITMAP
EE
EE
64
6C
6C
6C
2C
2C
28
38
38
38
38
ENDCHAR
STARTCHAR 0077
ENCODING 119
SWIDTH 562 0
DWIDTH 9 0
BBX 8 13 0 0
BITMAP
E7
EF
4A
7A
7A
7A
7E
7E
7E
3E
3E
36
24
ENDCHAR
STARTCHAR 0078
ENCODING 120
SWIDTH 500 0
DWIDTH 8 0
BBX 7 13 0 0
BITMAP
EE
EE
6C
6C
38
38
10
38
28
6C
64
EE
EE
ENDCHAR
STARTCHAR 0079
ENCODING 121
SWIDTH 500 0
DWIDTH 8 0
BBX 7 13 0 0
BITMAP
EE
EE
6C
6C
38
38
18
10
10
10
10
38
38
ENDCHAR
STARTCHAR 007A
ENCODING 122
SWIDTH 437 0
DWIDTH 7 0
BBX 6 13 0 0
BITMAP
FC
FC
CC
08
18
10
30
20
60
60
CC
FC
FC
ENDCHAR
ENDFONT
